<svg xmlns="http://www.w3.org/2000/svg" xmlns:xlink="http://www.w3.org/1999/xlink" width="73" height="130" viewBox="0 0 73 130">
    <defs>
        <path id="a" d="M1.325 25.196c-.295.147-.295 1.472-.59 1.62.737 9.565 1.62 19.131 2.356 28.844.294 3.238.588 6.476.735 9.566.736 8.83 1.472 17.66 2.355 26.491l1.325 11.038.294.588c1.913 1.914 3.238 2.944 5.74 3.68 2.502.735 5.298.883 7.947.883 2.207.147 4.562.147 6.77.147 4.709-.147 9.566.147 14.275 0 4.12 0 9.272.736 12.51-1.913h.883c.588-9.566 1.177-18.985 1.766-28.551.588-9.125 1.177-18.25 2.06-27.374.294-2.502.441-5.004.736-7.358.441-3.532.736-7.065.883-10.597 0-.883 0-1.913-.589-2.649s-1.619-.294-2.502-.588C54.306-9.094 31.347 1.649 17.072.766 15.452.619 5.15 12.54 3.532 12.392c-2.796-.441-2.06 7.506-2.207 11.038v1.766z"/>
    </defs>
    <g fill="none" fill-rule="evenodd" opacity=".5">
        <path fill="#BCBDC1" fill-rule="nonzero" d="M11.774 115.381c-2.502 0-5.151.442-7.065 2.208-1.913 1.619-2.649 4.856-1.177 6.77 1.03 1.324 2.796 1.913 4.415 2.354 8.536 2.208 17.366 2.65 26.05 1.472 2.943-.442 5.886-1.03 8.83-1.177 8.388-.59 17.071 1.471 25.018-1.178 1.913-.588 3.827-1.766 4.268-3.68.295-1.176-.147-2.354-.736-3.384-1.177-1.766-3.09-2.796-5.003-3.238-1.914-.441-3.974-.588-6.034-.588-8.095 0-16.19.441-24.136 1.177-8.242.736-15.453 2.355-23.253-.294l-1.177-.442z"/>
        <g transform="translate(4.415 14.245)">
            <mask id="b" fill="#fff">
                <use xlink:href="#a"/>
            </mask>
            <g fill-rule="nonzero" mask="url(#b)">
                <g fill="#58585A">
                    <path d="M44.592 7.389c2.65 1.766 4.71 4.268 5.593 7.358.294 1.178.589 2.502.441 3.68.295 2.354-1.03 3.384-3.973 3.384a9.383 9.383 0 0 1-1.178-2.06c-1.766-3.68-1.177-6.181-.294-9.86.294-1.178.589-2.208-.294-3.091h-.147c-1.178.736-.883 2.355-1.178 3.68-.588 2.207-1.03 4.12-.441 6.475.588 2.354 2.649 9.124 6.034 7.947 3.385-1.177 3.385-6.623 2.796-9.272-.883-3.973-3.385-7.211-6.917-9.124-.442-.148-.883.588-.442.883z"/>
                    <path d="M43.562 12.834c1.03.147 1.913 0 2.944-.294.883-.295 1.766-.736 2.796-1.03h.294c.147 0 .295.294.442.44.736 1.62 1.03 3.386 1.177 5.152 0 .589.147 1.177 0 1.766l-.441 1.324-.442 1.325c-.294.589-.589 1.325-1.177 1.766l-.589.147c-.736-.147-1.324-.588-1.766-1.03-.442-.589-.736-1.177-.883-1.913-.883-2.355-1.766-4.857-1.913-7.359l-.442-.294z"/>
                    <path d="M49.45 23.872c.882 6.77-15.16.883-18.25-.295-1.619-.588-3.385-.883-5.298-1.03-2.796-.294-7.947 1.325-9.713-.736C10.89 15.777 23.4 5.181 28.109 3.71c6.329-2.06 11.48.295 16.483 4.416.736.588 1.766-.442 1.03-1.03-3.531-3.68-5.297-5.299-10.448-5.887-3.68-.442-6.917.147-10.302 2.06-4.415 2.502-6.917 5.74-9.272 10.155-1.03 1.913-3.09 7.8-1.325 9.713 1.178 1.324 3.827.883 5.446.736 6.328-.589 10.596 1.177 16.483 3.09 2.207.736 18.985 4.71 13.687-3.09-.148-.442-.442-.295-.442 0z"/>
                </g>
                <path fill="#FFF" d="M30.611 65.52c.442-4.856.883-9.565 1.325-14.422.736-7.653 1.324-15.158 1.472-22.811 0-2.06 0-4.268-1.178-5.887-1.03-1.472-2.796-2.208-4.415-2.796-4.857-1.913-9.86-3.827-14.717-5.74l-.294.294c-1.178.148-2.355-.883-3.532-.588-.442.147-.883.588-1.178 1.03-1.766 2.208-3.532 4.415-4.71 7.064C1.03 26.962 1.62 33.144 1.767 39.03c0 4.857-.294 9.566-1.177 14.276l-.883 3.532c-1.178 3.679.441 7.653-.148 11.332-.147 1.177-.588 2.207-.294 3.385.294 1.471 1.766 2.354 2.944 3.237 2.354 1.472 4.562 2.944 7.064 3.974"/>
                <path fill="#58585A" d="M30.758 65.52c1.03-8.977 1.914-17.954 2.502-26.931.295-5.151 2.502-13.687-1.913-17.514-1.766-1.471-4.415-2.207-6.475-2.943-3.68-1.472-7.653-3.68-11.627-4.562-2.943-.589-3.973-.589-6.034 1.619-9.713 10.743-4.856 26.196-7.505 39.294-1.03 5.004-1.472 10.45-1.325 15.6.147 5.445 6.181 7.653 10.744 9.419.735.294 1.177-.736.441-1.03-4.71-2.355-8.389-3.827-9.124-9.86-.295-1.767 0-4.121-.148-5.887-.147-3.238.442-5.887 1.03-8.978 2.208-11.48-1.766-25.019 4.857-35.173 2.502-3.974 5.004-4.121 8.977-3.238 7.359 1.766 17.22 5.592 17.955 14.275.883 11.48-1.766 24.136-2.355 35.91-.147 0 0 0 0 0z"/>
                <path fill="#58585A" d="M3.826 20.634c6.182 2.796 12.804 6.917 19.427 7.947.294 0 .441-.441.147-.589-6.623-1.913-12.95-5.15-19.426-7.8-.295 0-.442.295-.148.442zM32.23 22.4c-1.177.736-2.355 1.619-3.532 2.355-1.03.736-2.207 1.471-3.09 2.354-.148.148 0 .442.294.442 1.177-.589 2.06-1.472 3.09-2.208 1.178-.883 2.208-1.766 3.238-2.649.295-.147.147-.441 0-.294z"/>
            </g>
        </g>
        <path fill="#FFF" fill-rule="nonzero" d="M6.328 40.325c-.294.147-.736.147-1.03.294.736 9.566 1.619 19.132 2.355 28.845.294 3.238.589 6.476.736 9.566.736 8.83 1.471 17.66 2.354 26.49l1.325 11.038.294.59c1.913 1.912 3.238 2.943 5.74 3.678 2.502.736 5.298.883 7.947.883 2.208.148 4.562.148 6.77.148 4.71-.148 9.566.147 14.275 0 4.121 0 9.272.735 12.51-1.914h.588c.59-9.566 1.178-18.985 1.766-28.55.59-9.125 1.178-18.25 2.06-27.374.295-2.502.442-5.004.737-7.359.441-3.532.736-7.064.883-10.596 0-.883 0-1.913-.589-2.649s-1.619-.294-2.502-.589c-13.981.736-28.404.736-42.68-.147-1.618-.147-3.237-.147-4.709-.441-2.796-.442-5.445-1.03-8.094-2.06"/>
        <path fill="#58585A" fill-rule="nonzero" d="M6.181 39.736c-.294.147-.736.147-1.03.294a.81.81 0 0 0-.442.736c1.178 13.687 2.208 27.374 3.385 41.06.589 6.182 1.03 12.363 1.62 18.544.44 4.856 0 12.215 1.912 16.63 2.797 6.181 13.834 5.592 18.985 5.592h18.69c2.208 0 4.563.295 6.77-.294.59-.147 3.827-1.619 4.269-1.619.294 0 .588-.294.735-.588.883-13.246 1.62-26.344 2.502-39.59a513.98 513.98 0 0 1 1.766-21.192c.295-3.532 2.502-11.332 1.03-14.717-.882-1.913-.882-1.618-2.796-2.207-4.562-1.325-11.773.441-16.63.441-12.95.148-27.52 1.178-39.883-3.09-.736-.294-1.177.883-.441 1.177 8.83 3.09 18.249 2.944 27.52 3.09 5.74.148 11.48.148 17.22 0 2.648 0 6.033-.882 8.535-.294 7.211 1.472 5.151 4.857 4.71 10.155-.883 9.713-1.914 19.574-2.502 29.287-.442 5.592-.736 11.185-1.03 16.777-.148 2.797-.295 5.74-.59 8.536-.146 2.65.442 7.359-.44 9.713-2.061 5.446-20.163 2.944-25.608 3.09-5.004 0-10.744.442-15.6-1.03-7.212-2.207-6.476-6.77-7.212-13.392-.588-5.887-7.505-65.343-5.298-65.785.736-.294.589-1.471-.147-1.324z"/>
        <path fill="#58585A" fill-rule="nonzero" d="M11.774 114.204c9.713 3.385 19.72 3.973 29.875 3.826 7.064-.147 13.981-.883 19.868-5.15.589-.442 0-1.472-.736-1.03-12.51 8.682-34.88 5.886-48.566 1.324-.589-.148-1.177.883-.441 1.03zM6.475 49.008c13.54 4.856 30.023 3.973 44.151 2.943.736 0 .736-1.177 0-1.177-13.686 1.03-30.464 1.766-43.709-2.797-.589-.441-1.177.736-.442 1.03z"/>
        <path fill="#BCBDC1" fill-rule="nonzero" d="M49.596 44.15c0 1.325.147 2.65.295 3.975.147.735 1.324.588 1.177-.148-.147-1.177-.294-2.502-.294-3.679 0-.883-1.178-.883-1.178-.147zM52.54 42.974c.147 2.207.441 4.268.441 6.475 0 .736 1.177.736 1.177 0 0-2.207-.294-4.562-.588-6.77 0-.736-1.03-.441-1.03.295zM11.48 110.525c1.324.294 2.207 0 3.531-.295l-1.766-20.75c-.294-3.091-.588-6.035-.736-9.125-.735-7.947-1.324-15.895-2.207-23.695 0-.294 0-.441-.294-.588-.148-.147-.295-.147-.442-.147-1.03-.148-2.06-.442-2.943-.59l4.856 55.19zM23.989 112.29c-1.325 0-1.914-.147-3.238-.44-.147 0-.294 0-.442-.148-.147-.147-.147-.294-.147-.442-.441-4.71-.883-9.418-.736-14.128.148-2.355.442-4.71.442-7.064 0-5.445-1.177-10.743-1.325-16.189-.147-5.887.59-11.037-1.913-16.188l1.03-.59c1.766.295 3.68.59 5.446.59 1.03 4.856.588 10.007.441 14.864-.147 4.71.147 9.271.295 13.98.294 8.537.735 17.22 1.03 25.756.147-.148-.589 0-.883 0zM29.287 57.396c2.502.442 4.12 0 5.15-.294.295-.147.737-.294 1.03 0 .148.147.148.441.295.736.147 11.332-.883 22.664-.441 33.996.294 7.211 1.177 14.423.588 21.634-1.324 0-2.649-.147-3.973-.442-.147 0-.442-.147-.589-.294-.441-.294-.147-.883-.147-1.324 0-5.887.294-11.48-.589-17.072-.441-3.09-1.03-6.181-.883-9.272.147-1.619.295-3.238.442-5.004.441-5.298-.736-10.743-.147-16.041.147-2.208.735-4.71-.442-6.623h-.294zM44.004 57.985c1.766-.442 3.532-.883 5.445-1.325.147 0 .294-.147.442 0 .147.148.147.295.147.442.147 1.472.294 2.796.294 4.268 0 3.238-.294 6.475-.589 9.713-1.03 13.54-.441 27.226-.883 40.766 0 .294 0 .589-.294.736-.147.147-.441.147-.736.147-1.324-.147-2.649-.147-3.826-.294-.147-9.125-.442-18.25-.589-27.374-.147-4.12-.147-8.241.147-12.362.442-4.857 1.325-9.713.442-14.423v-.294zM60.634 108.906c-1.325.736-2.943 1.324-4.415 1.471 1.177-3.237.883-6.77.883-10.302-.147-5.298.147-10.596.441-15.894.442-9.124.883-18.102 1.325-27.226 0-.147 0-.295.147-.442.147-.147.294-.294.442-.294 1.471-.442 4.12-1.03 5.592-1.472l-4.415 54.159z"/>
        <path fill="#58585A" fill-rule="nonzero" d="M66.226 44.445c.295.442.736.883 1.178 1.03.883.148 1.766-.883 1.766-1.766s-.736-1.766-1.325-2.354c-1.324-1.325-2.943-2.502-4.856-2.797-2.65-.294-5.74 2.06-7.506 4.121"/>
        <g fill-rule="nonzero">
            <path fill="#FFF" d="M1.619 25.46c.147 1.178.441 2.355.883 3.385.147.295.294.589.589.736a.938.938 0 0 0 .883 0c12.215-2.207 24.283-5.15 35.909-9.566 1.619-.589 3.09-1.177 4.71-1.766 2.796-1.03 5.445-2.207 8.241-3.238 2.943-1.177 5.887-2.207 8.536-3.826 1.324-.736 2.502-1.619 3.68-2.65.293-.146.44-.44.588-.735.147-.294 0-.736-.147-1.03-.295-1.03-1.03-2.502-1.325-3.532"/>
            <path fill="#58585A" d="M1.177 25.46c1.03 4.71 1.178 4.71 5.593 3.974 10.449-1.619 20.898-4.562 30.905-8.094 7.948-2.797 16.778-5.446 23.99-9.86 4.856-2.944 5.003-3.533 2.943-8.684-.295-.588-1.03-.147-.883.442 3.384 8.977-22.223 15.6-27.816 17.513-5.15 1.766-32.377 11.774-33.996 4.415.147-.441-.736-.294-.736.294z"/>
            <path fill="#FFF" d="M11.626 17.366c-2.649 1.619-3.973 1.766-6.622 3.385-1.62 1.03-3.532 2.502-3.238 4.415 0 .294.147.736.442.883.588.589 1.471.442 2.207.294 11.627-2.649 23.253-6.034 34.438-10.154 1.913-.736 3.826-1.472 5.74-2.06 5.74-1.914 11.773-3.386 16.63-6.918 1.03-.736 1.913-1.471 2.354-2.649.295-.736.442-1.766-.294-2.207-.294-.147-.736-.147-1.177-.147-3.238.147-5.004-.59-8.242-.442-2.06.147-5.298 1.325-7.358 1.619-1.914.441-3.68 1.03-5.446 1.619-8.977 3.09-16.188 5.887-24.871 9.86l-4.563 2.502z"/>
            <path fill="#58585A" d="M11.48 16.925C9.271 18.102.146 20.898 1.324 25.019c1.03 3.238 5.15 1.177 7.358.736a279.101 279.101 0 0 0 30.464-9.272c6.77-2.502 14.423-4.12 20.604-7.8 1.766-1.03 6.623-4.12 4.12-6.623-2.207-2.354-10.448-.883-13.539-.147-13.098 2.944-27.52 7.8-38.853 15.012-.588.294-.147 1.03.442.735 8.094-4.12 16.188-7.652 24.724-10.743 3.974-1.472 7.8-2.65 11.774-3.68 3.385-.735 6.181-1.324 9.566-1.03 1.324.148 2.796.295 4.268.295-.442 2.796-1.766 4.71-3.974 5.74-3.973 3.09-10.89 4.12-15.6 5.886-4.71 1.62-9.419 3.532-14.275 5.004-5.298 1.766-10.596 3.238-16.042 4.71-.736.147-7.358 2.501-7.947 1.913-3.532-3.532 5.887-7.212 7.506-8.095.441-.147 0-.883-.442-.735z"/>
            <g>
                <path fill="#FFF" d="M20.75 15.747c-.293-1.324-.588-2.796-.293-4.12.147-.884.588-1.62 1.03-2.355a14.581 14.581 0 0 1 1.619-2.502c2.06-2.355 5.15-3.68 8.241-3.68 1.472 0 2.944.442 4.415.736 1.03.295 1.913.442 2.796.883 1.767.883 3.091 2.502 4.268 3.974-.883.736-1.913 1.325-2.943 1.913-.589.295-1.325.589-2.06.295-.442-.148-.589-.442-.883-.736-1.325-1.325-2.797-2.65-4.563-2.944-1.766-.441-3.679.147-5.15 1.325-1.325 1.177-2.208 2.943-2.355 4.856-.147.883 0 1.914-.589 2.502-.589.589-1.619.736-2.502.589l-1.03-.736z"/>
                <path fill="#58585A" d="M21.192 15.6C19.721 7.653 27.08 2.65 34.291 3.974c.883.147 1.913.294 2.796.735 1.619.59 2.943 1.472 3.973 2.65 1.03.883.59 1.324-1.618 1.471-3.827 1.62-.884 1.03-3.238-.147-.589-.294-1.178-.883-1.766-1.325-2.502-1.324-5.446-1.177-7.506.59-1.472 1.324-3.68 9.27-5.887 7.21-.294-.294-1.03.148-.736.59 1.766 1.912 3.974 1.177 4.857-1.178 0-1.325.294-2.65.883-3.827 3.385-4.415 6.917-4.562 10.743-.441 2.06.736 0 1.03 2.208.883 1.472 0 3.238-1.472 4.415-2.355.294-.147.147-.588 0-.736-3.68-4.415-9.419-6.917-15.306-5.298-5.592 1.62-8.683 7.064-7.652 12.51-.148 1.03.883.883.735.294z"/>
            </g>
        </g>
    </g>
</svg>
