<?xml version="1.0" encoding="iso-8859-1"?>
<!-- Generator: Adobe Illustrator 16.0.0, SVG Export Plug-In . SVG Version: 6.00 Build 0)  -->
<!DOCTYPE svg PUBLIC "-//W3C//DTD SVG 1.1//EN" "http://www.w3.org/Graphics/SVG/1.1/DTD/svg11.dtd">
<svg version="1.1" id="Capa_1" xmlns="http://www.w3.org/2000/svg" xmlns:xlink="http://www.w3.org/1999/xlink" x="0px" y="0px"
	 width="440.429px" height="440.429px" viewBox="0 0 440.429 440.429" style="enable-background:new 0 0 440.429 440.429;"
	 xml:space="preserve">
<g>
	<g>
		<path fill="#fff" d="M126.216,45.425v341.4c0,1.635,1.328,2.961,2.963,2.961h182.065c1.635,0,2.96-1.326,2.96-2.961v-341.4
			c0-1.635-1.325-2.963-2.96-2.963H129.18C127.544,42.462,126.216,43.79,126.216,45.425z M132.143,48.388h176.137v335.471H132.143
			V48.388z"/>
		<path fill="#fff" d="M238.731,396.488h-37.039c-5.987,0-10.862,4.764-10.862,10.613c0,5.753,4.789,10.74,10.667,11.101l10.648,0.67
			c2.227,0.138,5.141,0.208,8.066,0.208c2.922,0,5.834-0.07,8.064-0.208l10.648-0.67c5.88-0.36,10.669-5.348,10.669-11.101
			C249.594,401.252,244.719,396.488,238.731,396.488z M238.564,412.286l-10.648,0.665c-4.246,0.27-11.157,0.27-15.399,0
			l-10.648-0.665c-2.772-0.168-5.104-2.544-5.104-5.185c0-2.58,2.211-4.692,4.938-4.692h37.033c2.728,0,4.937,2.112,4.937,4.692
			C243.668,409.731,241.326,412.113,238.564,412.286z"/>
		<path fill="#fff" d="M107.146,45.425v349.576c0,25.044,20.375,45.428,45.425,45.428h135.29c25.05,0,45.422-20.384,45.422-45.428V45.425
			C333.283,20.383,312.911,0,287.861,0h-135.29C127.521,0,107.146,20.383,107.146,45.425z M321.432,45.425v349.576
			c0,18.509-15.057,33.575-33.57,33.575h-135.29c-18.517,0-33.576-15.066-33.576-33.575V45.425
			c0-18.509,15.059-33.575,33.576-33.575h135.29C306.375,11.85,321.432,26.916,321.432,45.425z"/>
		<path fill="#fff" d="M159.754,20.47c2.09,0,3.783,1.693,3.783,3.783s-1.693,3.786-3.783,3.786c-2.092,0-3.786-1.696-3.786-3.786
			S157.662,20.47,159.754,20.47z"/>
		<path fill="#fff" d="M242.997,20.47c2.087,0,3.783,1.693,3.783,3.783s-1.696,3.786-3.783,3.786c-2.092,0-3.788-1.696-3.788-3.786
			S240.905,20.47,242.997,20.47z"/>
		<path fill="#fff" d="M253.859,20.47c2.087,0,3.783,1.693,3.783,3.783s-1.696,3.786-3.783,3.786c-2.093,0-3.783-1.696-3.783-3.786
			S251.767,20.47,253.859,20.47z"/>
		<path fill="#fff" d="M280.696,20.47c2.087,0,3.783,1.693,3.783,3.783s-1.696,3.786-3.783,3.786c-2.093,0-3.788-1.696-3.788-3.786
			S278.604,20.47,280.696,20.47z"/>
		<path fill="#fff" d="M174.787,28.892h57.13c2.564,0,4.646-2.08,4.646-4.639c0-2.551-2.082-4.628-4.646-4.628h-57.13
			c-2.552,0-4.631,2.077-4.631,4.628C170.156,26.812,172.226,28.892,174.787,28.892z M174.787,21.6h57.13
			c1.478,0,2.671,1.193,2.671,2.653c0,1.462-1.193,2.664-2.671,2.664h-57.13c-1.47,0-2.656-1.193-2.656-2.664
			C172.131,22.785,173.317,21.6,174.787,21.6z"/>
		<circle fill="#fff" cx="178.42" cy="24.254" r="1.326"/>
		<circle fill="#fff" cx="182.315" cy="24.254" r="1.326"/>
		<circle fill="#fff" cx="186.185" cy="24.254" r="1.326"/>
		<circle fill="#fff" cx="190.057" cy="24.254" r="1.326"/>
		<circle fill="#fff" cx="193.929" cy="24.254" r="1.326"/>
		<circle fill="#fff" cx="197.808" cy="24.254" r="1.326"/>
		<circle fill="#fff" cx="201.678" cy="24.254" r="1.326"/>
		<circle fill="#fff" cx="205.55" cy="24.254" r="1.326"/>
		<circle fill="#fff" cx="209.419" cy="24.254" r="1.326"/>
		<circle fill="#fff" cx="213.314" cy="24.254" r="1.326"/>
		<circle fill="#fff" cx="217.186" cy="24.254" r="1.326"/>
		<circle fill="#fff" cx="221.058" cy="24.254" r="1.326"/>
		<path fill="#fff" d="M224.93,22.927c0.731,0,1.325,0.594,1.325,1.325c0,0.734-0.594,1.328-1.325,1.328c-0.736,0-1.331-0.594-1.331-1.328
			C223.599,23.521,224.193,22.927,224.93,22.927z"/>
		<path fill="#fff" d="M228.819,22.927c0.736,0,1.331,0.594,1.331,1.325c0,0.734-0.595,1.328-1.331,1.328c-0.731,0-1.325-0.594-1.325-1.328
			C227.494,23.521,228.088,22.927,228.819,22.927z"/>
	</g>
</g>
</svg>
