<svg xmlns="http://www.w3.org/2000/svg" xmlns:xlink="http://www.w3.org/1999/xlink" width="66" height="20" viewBox="0 0 66 20">
    <defs>
        <path id="a" d="M11.754 0H.088v15.12h11.666V0z"/>
        <path id="c" d="M.109 15.476h9.4V.091H.11z"/>
    </defs>
    <g fill="none" fill-rule="evenodd">
        <path fill="#ED0973" d="M65.566 0l-.72 1.675h-.005L64.143 0h-.37v2.223h.295V.608h.016l.663 1.615h.17l.68-1.615h.01v1.615h.32V0h-.36zm-3.663 0v.322h.64v1.9h.325v-1.9h.645V0h-1.61zM0 2.27h1.966V0H0zM0 14.871h1.966V4.041H0z"/>
        <g transform="translate(3.516)">
            <mask id="b" fill="#fff">
                <use xlink:href="#a"/>
            </mask>
            <path fill="#ED0973" d="M9.24 7.083c-.587-.266-1.666-.576-3.208-.924-1.522-.347-2.475-.685-2.831-1.008-.354-.315-.527-.707-.527-1.2 0-.57.247-1.045.754-1.451.506-.407 1.333-.613 2.46-.613 1.08 0 1.903.227 2.445.675.544.448.868 1.12.965 2l.01.096 2.017-.151-.004-.099c-.034-.864-.277-1.646-.724-2.324C10.149 1.399 9.5.876 8.67.527 7.858.177 6.896 0 5.81 0c-.983 0-1.885.168-2.683.499-.816.337-1.423.822-1.856 1.483a3.79 3.79 0 0 0-.635 2.095c0 .684.176 1.306.524 1.853.346.546.877 1.009 1.577 1.376.535.286 1.45.583 2.8.91 1.317.316 2.176.55 2.553.698.597.23 1.009.498 1.257.823.246.318.371.695.371 1.12 0 .423-.132.817-.391 1.173-.251.355-.653.646-1.196.86-.546.21-1.182.317-1.893.317-.793 0-1.523-.141-2.165-.418-.643-.284-1.118-.651-1.412-1.091-.302-.447-.496-1.03-.577-1.73l-.011-.098-1.985.175.002.096c.025.983.296 1.875.805 2.65.507.776 1.22 1.365 2.117 1.75.888.384 2.003.579 3.315.579 1.041 0 1.99-.193 2.818-.573.836-.385 1.487-.93 1.937-1.621a4.073 4.073 0 0 0 .672-2.227c0-.79-.207-1.5-.616-2.11-.411-.609-1.05-1.115-1.899-1.506" mask="url(#b)"/>
        </g>
        <path fill="#ED0973" d="M20.967 13.06c-.675.095-1.082.088-1.316-.046a.675.675 0 0 1-.266-.305c-.03-.08-.084-.307-.084-.953V5.648h1.78V4.04H19.3V.25l-1.959 1.205v2.587h-1.296v1.607h1.296v6.01c0 1.102.074 1.81.225 2.166.152.359.417.649.788.862.368.217.873.324 1.542.324a6.58 6.58 0 0 0 1.358-.16l.094-.02-.285-1.785-.097.014zM29.272 9.585v.513c0 .772-.093 1.364-.275 1.755-.241.51-.61.902-1.128 1.2-.511.294-1.107.443-1.769.443-.664 0-1.169-.153-1.502-.456a1.44 1.44 0 0 1-.502-1.121c0-.294.078-.563.231-.8a1.42 1.42 0 0 1 .65-.55c.303-.132.827-.254 1.519-.353 1.225-.179 2.135-.385 2.776-.63m2.1 3.888c-.075-.432-.112-1.494-.112-3.158V7.917c0-.807-.03-1.373-.09-1.684-.106-.508-.298-.935-.575-1.268-.269-.338-.682-.613-1.266-.84-.568-.215-1.311-.325-2.206-.325-.916 0-1.701.125-2.401.38-.692.252-1.235.623-1.61 1.101-.368.48-.637 1.11-.8 1.873l-.022.106 1.928.266.022-.087c.19-.74.464-1.237.843-1.52.373-.28.973-.423 1.782-.423.863 0 1.518.196 1.95.583.308.275.464.772.464 1.476 0 .06 0 .193-.005.396-.67.228-1.702.427-3.069.592-.721.089-1.239.179-1.586.274a4.38 4.38 0 0 0-1.3.605 2.922 2.922 0 0 0-.943 1.07c-.243.434-.366.93-.366 1.478 0 .912.322 1.672.956 2.259.633.585 1.545.881 2.71.881.704 0 1.372-.12 1.987-.357.572-.218 1.155-.578 1.779-1.095.06.435.176.824.343 1.158l.027.055h2.085l-.086-.152a3.865 3.865 0 0 1-.44-1.245"/>
        <g transform="translate(32.15 3.71)">
            <mask id="d" fill="#fff">
                <use xlink:href="#c"/>
            </mask>
            <path fill="#ED0973" d="M4.888 9.468c-.793 0-1.435-.302-1.964-.926-.53-.617-.798-1.622-.798-2.986 0-1.25.27-2.203.802-2.83.526-.623 1.176-.939 1.93-.939.77 0 1.432.32 1.973.952.548.64.825 1.61.825 2.881 0 1.328-.269 2.312-.798 2.927-.533.611-1.195.921-1.97.921zm2.788-8.032C6.887.544 5.898.09 4.73.09c-.944 0-1.774.241-2.467.715-.7.481-1.24 1.164-1.604 2.031C.295 3.703.11 4.662.11 5.687c0 1.488.404 2.785 1.2 3.851.8 1.077 1.947 1.624 3.41 1.624 1.095 0 2.032-.412 2.792-1.226-.004 1.033-.045 1.696-.125 2.02-.15.572-.441 1.024-.864 1.343-.433.323-1.036.481-1.843.481-.737 0-1.323-.161-1.739-.48-.3-.231-.49-.605-.558-1.113l-.01-.076-1.904-.29-.004.116c-.025 1.176.36 2.071 1.15 2.66.78.583 1.817.88 3.076.88 1.061 0 1.97-.208 2.7-.617.732-.41 1.274-.973 1.611-1.679.337-.704.509-1.903.509-3.564V.332H7.676v1.104z" mask="url(#d)"/>
        </g>
        <path fill="#ED0973" d="M43.276 14.871h1.968V4.041h-1.968zM43.276 2.27h1.968V0h-1.968zM54.89 5.092c-.273-.385-.685-.7-1.229-.938A4.397 4.397 0 0 0 51.89 3.8c-1.37 0-2.451.516-3.22 1.535V4.041h-1.794v10.83h1.973V8.966c0-1.329.263-2.237.782-2.698a2.758 2.758 0 0 1 1.883-.702c.46 0 .848.1 1.185.307.326.201.559.478.69.823.132.355.2.896.2 1.61v6.565h1.969V8.234c0-.878-.033-1.44-.1-1.771-.113-.538-.298-.986-.567-1.37M61.307 13.177c-.787 0-1.45-.312-1.968-.926-.527-.617-.793-1.622-.793-2.986 0-1.25.269-2.203.8-2.83.526-.623 1.177-.938 1.931-.938.777 0 1.422.31 1.973.95.547.64.823 1.61.823 2.882 0 1.329-.268 2.314-.796 2.927-.53.612-1.193.921-1.97.921zm2.787-9.136v1.103C63.307 4.252 62.317 3.8 61.15 3.8c-.943 0-1.774.241-2.47.716-.697.48-1.235 1.164-1.6 2.03-.365.867-.55 1.826-.55 2.85 0 1.489.404 2.785 1.199 3.851.8 1.077 1.947 1.624 3.41 1.624 1.092 0 2.029-.412 2.788-1.227 0 1.018-.04 1.697-.122 2.021-.15.575-.444 1.026-.872 1.344-.416.319-1.032.48-1.834.48-.737 0-1.322-.161-1.739-.48-.3-.227-.49-.602-.557-1.113l-.01-.076-1.905-.29-.002.116c-.027 1.176.36 2.071 1.15 2.661.78.582 1.814.878 3.075.878 1.06 0 1.97-.207 2.696-.616.734-.408 1.276-.972 1.614-1.679.338-.705.508-1.904.508-3.564V4.041h-1.834z"/>
    </g>
</svg>
