<?xml version="1.0" encoding="utf-8"?>
<svg version="1.1"
	 xmlns="http://www.w3.org/2000/svg" x="0px" y="0px" viewBox="0 0 512 512"
	 enable-background="new 0 0 512 512" xml:space="preserve">
  <path fill="#FFFFFF" d="M441,226.1L441,226.1c-8.3,0-15-6.7-15-15V86H299.7c-8.3,0-15-6.7-15-15v0c0-8.3,6.7-15,15-15H441
    c8.3,0,15,6.7,15,15v140.1C456,219.4,449.3,226.1,441,226.1z"/>
  <path fill="#FFFFFF" d="M226.7,70.4L226.7,70.4c0,8.3-6.7,15-15,15H86.6v126.3c0,8.3-6.7,15-15,15h0c-8.3,0-15-6.7-15-15V70.4
    c0-8.3,6.7-15,15-15h140.1C220,55.4,226.7,62.1,226.7,70.4z"/>
  <path fill="#FFFFFF" d="M71,285.3L71,285.3c8.3,0,15,6.7,15,15v125.1h126.3c8.3,0,15,6.7,15,15v0c0,8.3-6.7,15-15,15H71
    c-8.3,0-15-6.7-15-15V300.3C56,292,62.7,285.3,71,285.3z"/>
  <path fill="#FFFFFF" d="M285.3,441L285.3,441c0-8.3,6.7-15,15-15h125.1V299.7c0-8.3,6.7-15,15-15h0c8.3,0,15,6.7,15,15V441
    c0,8.3-6.7,15-15,15H300.3C292,456,285.3,449.3,285.3,441z"/>
</svg>
