<?xml version="1.0" encoding="utf-8"?>
<svg version="1.1"
	 xmlns="http://www.w3.org/2000/svg" x="0px" y="0px" viewBox="0 0 512 512"
	 enable-background="new 0 0 512 512" xml:space="preserve">
<g>
  <path fill="#FFFFFF" d="M261.7,73.6l-115,102H71c-8.3,0-15,6.7-15,15v130.9c0,8.3,6.7,15,15,15h75.7l115,102
    c9.7,8.6,25,1.7,25-11.2V84.8C286.7,71.9,271.4,65,261.7,73.6z"/>
  <path fill="#FFFFFF" d="M302.1,345.4L302.1,345.4c-1.2-7.3,3-14.3,10-16.6c13.8-4.6,26.2-12.9,35.8-24.1
    c12.5-14.6,19.4-33.2,19.4-52.5s-6.9-37.9-19.4-52.5c-9.6-11.2-22-19.5-35.8-24.1c-7-2.3-11.2-9.4-10-16.6l0,0
    c1.5-9.1,10.8-14.7,19.6-11.8c18.9,6.3,35.9,17.7,49,33c17.2,20,26.6,45.6,26.6,72s-9.4,52-26.6,72c-13.1,15.3-30.1,26.7-49,33
    C313,360.1,303.7,354.5,302.1,345.4z"/>
  <path fill="#FFFFFF" d="M343.8,380.6L343.8,380.6c-1.8-7.5,2.4-15,9.6-17.6c20.3-7.3,38.4-20.2,52-37.2
    c16.9-21.1,25.9-46.6,25.9-73.7c0-27.2-9-52.7-26-73.9c-13.7-17-32-29.9-52.4-37.2c-7.2-2.6-11.4-10.1-9.7-17.5l0,0
    c2-8.7,11.2-13.8,19.7-10.8c25.6,9.1,48.6,25.3,65.8,46.7c21.1,26.1,32.7,59.1,32.7,92.7c0,33.5-11.5,66.3-32.4,92.4
    c-17.1,21.3-39.9,37.5-65.3,46.7C355.1,394.3,345.9,389.3,343.8,380.6z"/>
</g>
</svg>
