<?xml version="1.0" encoding="utf-8"?>
<svg version="1.1"
	 xmlns="http://www.w3.org/2000/svg" x="0px" y="0px" viewBox="0 0 512 512"
	 enable-background="new 0 0 512 512" xml:space="preserve">
  <g>
    <rect x="56" y="107.7" fill="#FFFFFF" width="130" height="114.4"/>
    <rect x="326" y="107.7" fill="#FFFFFF" width="130" height="114.4"/>
    <path fill="#FFFFFF" d="M56,154.3v250h400v-250H56z M171,324.7c-27.6,0-50-22.4-50-50c0-27.6,22.4-50,50-50s50,22.4,50,50
      C221,302.3,198.6,324.7,171,324.7z M341,324.7c-27.6,0-50-22.4-50-50c0-27.6,22.4-50,50-50s50,22.4,50,50
      C391,302.3,368.6,324.7,341,324.7z"/>
  </g>
</svg>
