<?xml version="1.0" encoding="UTF-8"?>
<svg width="40px" height="40px" viewBox="0 0 40 40" version="1.1" xmlns="http://www.w3.org/2000/svg" xmlns:xlink="http://www.w3.org/1999/xlink">
    <!-- Generator: Sketch 49.1 (51147) - http://www.bohemiancoding.com/sketch -->
    <title>Rectangle 11</title>
    <desc>Created with Sketch.</desc>
    <defs></defs>
    <g id="apture-Email-leads-from-Viewer" stroke="none" stroke-width="1" fill="none" fill-rule="evenodd">
        <g id="Group-3">
            <rect id="Rectangle-11" x="0" y="0" width="40" height="40"></rect>
            <g id="user-2" transform="translate(5.000000, 5.000000)" fill="#FFFFFF" fill-rule="nonzero">
                <path d="M25.6066406,19.3933594 C23.9728711,17.7596484 22.0282617,16.5502148 19.906582,15.8180859 C22.1789648,14.2529883 23.671875,11.6336719 23.671875,8.671875 C23.671875,3.89021484 19.7816602,0 15,0 C10.2183398,0 6.328125,3.89021484 6.328125,8.671875 C6.328125,11.6336719 7.82103516,14.2529883 10.0934766,15.8180859 C7.97179687,16.5502148 6.0271875,17.7596484 4.39341797,19.3933594 C1.56029297,22.226543 0,25.9933594 0,30 L2.34375,30 C2.34375,23.0213086 8.02130859,17.34375 15,17.34375 C21.9786914,17.34375 27.65625,23.0213086 27.65625,30 L30,30 C30,25.9933594 28.439707,22.226543 25.6066406,19.3933594 Z M15,15 C11.5106836,15 8.671875,12.16125 8.671875,8.671875 C8.671875,5.1825 11.5106836,2.34375 15,2.34375 C18.4893164,2.34375 21.328125,5.1825 21.328125,8.671875 C21.328125,12.16125 18.4893164,15 15,15 Z" id="Shape"></path>
            </g>
        </g>
    </g>
</svg>