<?xml version="1.0" encoding="UTF-8"?>
<svg width="40px" height="40px" viewBox="0 0 40 40" version="1.1" xmlns="http://www.w3.org/2000/svg" xmlns:xlink="http://www.w3.org/1999/xlink">
    <!-- Generator: Sketch 49.1 (51147) - http://www.bohemiancoding.com/sketch -->
    <title>Rectangle 11</title>
    <desc>Created with Sketch.</desc>
    <defs></defs>
    <g id="apture-Email-leads-from-Viewer" stroke="none" stroke-width="1" fill="none" fill-rule="evenodd">
        <g id="Group-4">
            <rect id="Rectangle-11" x="0" y="0" width="40" height="40"></rect>
            <g id="email-2" transform="translate(5.000000, 9.000000)" fill="#FFFFFF" fill-rule="nonzero">
                <path d="M26.484375,0 L3.515625,0 C1.57710938,0 0,1.57710937 0,3.515625 L0,18.515625 C0,20.4541406 1.57710938,22.03125 3.515625,22.03125 L26.484375,22.03125 C28.4228906,22.03125 30,20.4541406 30,18.515625 L30,3.515625 C30,1.57710937 28.4228906,0 26.484375,0 Z M27.65625,18.515625 C27.65625,19.1617969 27.1305469,19.6875 26.484375,19.6875 L3.515625,19.6875 C2.86945312,19.6875 2.34375,19.1617969 2.34375,18.515625 L2.34375,3.515625 C2.34375,2.86945312 2.86945312,2.34375 3.515625,2.34375 L26.484375,2.34375 C27.1305469,2.34375 27.65625,2.86945312 27.65625,3.515625 L27.65625,18.515625 Z" id="Shape"></path>
                <polygon id="Shape" points="27.4572656 1.46115234 15 10.7269922 2.54273437 1.46115234 1.14386719 3.34171875 15 13.6480078 28.8561328 3.34171875"></polygon>
            </g>
        </g>
    </g>
</svg>