<svg xmlns="http://www.w3.org/2000/svg" width="119" height="87" viewBox="0 0 119 87">
    <g fill="none" fill-rule="nonzero">
        <g fill="#BCBDC1">
            <path d="M65.038 21.798C65.038 14.333 70.536.4 85.865.4c7.498 0 21.328 2.156 21.328 21.398 0 7.132-2.333 19.241-20.162 20.236-7.497.498-21.993-2.985-21.993-20.236zM53.506 65.75c2.166-8.79 7.664-21.065 28.825-22.392 10.664-.664 29.325 2.322 35.99 22.393.666 2.156 2.333 6.966-5.498 6.966H57.005c-2 0-5.166.166-3.5-6.966z"/>
            <g>
                <path d="M12.001 21.798C12.001 14.333 17.464.4 32.695.4c7.45 0 21.19 2.156 21.19 21.398 0 7.132-2.318 19.241-20.032 20.236-7.45.498-22.017-2.985-21.852-20.236zM.466 65.75c2.152-8.79 7.615-21.065 28.474-22.392 10.595-.664 29.136 2.322 35.758 22.393.662 2.156 2.318 6.966-5.463 6.966H3.777c-1.82 0-4.966.166-3.31-6.966z"/>
            </g>
        </g>
        <path fill="#EAEAEA" d="M79.406 34.431c0-7.336-5.358-21.008-20.428-21.008-7.368 0-20.931 2.168-20.931 21.008 0 7.003 2.344 18.84 19.759 19.841 7.2.5 21.6-3.001 21.6-19.84zM90.504 78.295c-1.99-8.584-7.46-20.469-27.852-21.79-10.28-.66-28.516 2.311-34.981 21.79-.664 1.981-2.322 6.768 5.305 6.768h54.212c1.824 0 4.974.166 3.316-6.768z"/>
        <path fill="#FFF" d="M81.336 33.464c-.5-12.428-9.653-22.204-22.467-22.039-13.314.166-20.304 9.28-20.803 22.04-.5 12.759 8.654 19.718 20.636 20.878 12.981 1.16 22.134-8.45 22.634-20.879 0-1.325-1.997-1.325-1.997 0-.833 25.022-38.61 24.525-39.11 0-.499-26.844 37.945-25.353 39.11 0 0 1.326 1.997 1.326 1.997 0z"/>
        <path fill="#FFF" d="M91.69 78.167c-3.827-14.914-15.144-22.04-30.288-22.702-14.146-.663-28.958 6.628-33.95 20.382-.999 2.817-3.162 8.45 1.331 9.61 8.321 2.32 18.972.663 27.626.663h30.954c5.16.166 4.993-3.81 4.327-7.953-.166-1.326-2.163-.829-1.997.497 1.332 8.12-9.32 5.468-14.145 5.468H38.269c-2.33 0-10.817.829-10.152-3.811.5-3.48 2.497-6.628 4.327-9.611 6.324-10.108 18.972-13.754 30.29-13.257 13.646.829 23.63 8.12 26.96 21.376.332 1.16 2.33.663 1.996-.662z"/>
    </g>
</svg>
